<svg width="69" height="69" fill="none" xmlns="http://www.w3.org/2000/svg"><circle cx="25" cy="25" r="6" fill="#fff"/><circle cx="25" cy="43" r="6" fill="#fff"/><circle cx="43" cy="25" r="6" fill="#fff"/><circle cx="43" cy="43" r="6" fill="#fff"/><circle cx="58.5" cy="42.5" r="3.5" fill="#fff"/><circle cx="58.5" cy="58.5" r="3.5" fill="#fff"/><circle cx="42.5" cy="58.5" r="3.5" fill="#fff"/><circle cx="26.5" cy="58.5" r="3.5" fill="#fff"/><circle cx="10.5" cy="58.5" r="3.5" fill="#fff"/><circle cx="10.5" cy="42.5" r="3.5" fill="#fff"/><circle cx="10.5" cy="26.5" r="3.5" fill="#fff"/><circle cx="58.5" cy="26.5" r="3.5" fill="#fff"/><circle cx="67.5" cy="26.5" r="1.5" fill="#fff"/><circle cx="67.5" cy="42.5" r="1.5" fill="#fff"/><circle cx="42.5" cy="67.5" r="1.5" fill="#fff"/><circle cx="26.5" cy="67.5" r="1.5" fill="#fff"/><circle cx="1.5" cy="42.5" r="1.5" fill="#fff"/><circle cx="1.5" cy="26.5" r="1.5" fill="#fff"/><circle cx="26.5" cy="1.5" r="1.5" fill="#fff"/><circle cx="42.5" cy="1.5" r="1.5" fill="#fff"/><circle cx="58.5" cy="10.5" r="3.5" fill="#fff"/><circle cx="42.5" cy="10.5" r="3.5" fill="#fff"/><circle cx="26.5" cy="10.5" r="3.5" fill="#fff"/><circle cx="10.5" cy="10.5" r="3.5" fill="#fff"/></svg>